<?xml version="1.0" encoding="UTF-8" standalone="no"?>
<svg
   xmlns:dc="http://purl.org/dc/elements/1.1/"
   xmlns:cc="http://creativecommons.org/ns#"
   xmlns:rdf="http://www.w3.org/1999/02/22-rdf-syntax-ns#"
   xmlns:svg="http://www.w3.org/2000/svg"
   xmlns="http://www.w3.org/2000/svg"
   xmlns:sodipodi="http://sodipodi.sourceforge.net/DTD/sodipodi-0.dtd"
   xmlns:inkscape="http://www.inkscape.org/namespaces/inkscape"
   version="1.0"
   width="1257.000000pt"
   height="1280.000000pt"
   viewBox="0 0 1257.000000 1280.000000"
   preserveAspectRatio="xMidYMid meet"
   id="svg8"
   sodipodi:docname="blackerry.svg"
   inkscape:version="0.92.5 (2060ec1f9f, 2020-04-08)">
  <defs
     id="defs12" />
  <sodipodi:namedview
     pagecolor="#ffffff"
     bordercolor="#666666"
     borderopacity="1"
     objecttolerance="10"
     gridtolerance="10"
     guidetolerance="10"
     inkscape:pageopacity="0"
     inkscape:pageshadow="2"
     inkscape:window-width="1920"
     inkscape:window-height="1016"
     id="namedview10"
     showgrid="false"
     inkscape:zoom="0.13828125"
     inkscape:cx="838"
     inkscape:cy="853.33333"
     inkscape:window-x="0"
     inkscape:window-y="27"
     inkscape:window-maximized="1"
     inkscape:current-layer="svg8" />
  <metadata
     id="metadata2">
Created by potrace 1.15, written by Peter Selinger 2001-2017
<rdf:RDF>
  <cc:Work
     rdf:about="">
    <dc:format>image/svg+xml</dc:format>
    <dc:type
       rdf:resource="http://purl.org/dc/dcmitype/StillImage" />
    <dc:title></dc:title>
  </cc:Work>
</rdf:RDF>
</metadata>
  <g
     transform="matrix(-0.06321843,-0.06321843,-0.06321843,0.06321843,1434.4499,630.14152)"
     id="g6"
     style="fill:#000000;stroke:none">
    <path
       d="m 3757,12776 c -23,-35 -21,-79 4,-102 47,-41 99,-117 99,-143 0,-26 -2,-27 -100,-44 -285,-48 -474,-202 -657,-532 -50,-89 -50,-90 -86,-87 -25,2 -50,-5 -80,-22 -90,-53 -149,-28 -233,99 -87,133 -148,175 -251,175 -35,0 -43,-4 -43,-18 0,-41 47,-109 115,-165 76,-64 84,-74 95,-124 8,-32 6,-35 -32,-54 -59,-30 -130,-100 -213,-209 -96,-126 -148,-176 -220,-211 -63,-31 -99,-36 -111,-18 -3,6 -12,63 -19,126 -13,121 -24,146 -77,186 -32,24 -63,16 -83,-23 -21,-41 -19,-94 9,-201 14,-52 23,-95 21,-97 -2,-2 -36,-8 -77,-13 -126,-18 -218,-72 -295,-174 -25,-33 -92,-154 -148,-270 -77,-155 -116,-224 -152,-263 l -48,-54 -48,12 c -71,18 -172,8 -234,-23 -108,-55 -185,-155 -323,-420 -92,-177 -145,-254 -192,-279 -68,-37 -95,-17 -143,109 -32,83 -47,107 -95,156 -31,31 -62,57 -68,57 -19,0 -63,-76 -69,-119 -11,-84 58,-168 255,-309 56,-40 102,-75 102,-78 0,-3 -6,-17 -14,-32 -27,-52 -56,-157 -62,-222 -14,-152 27,-298 167,-593 113,-238 125,-273 138,-412 24,-247 -44,-449 -218,-648 l -50,-58 -35,69 c -41,82 -103,142 -146,142 -32,0 -35,-7 -30,-74 4,-65 41,-114 153,-204 84,-67 97,-94 97,-207 0,-50 8,-120 19,-168 11,-45 23,-99 26,-119 4,-27 16,-46 43,-68 107,-87 377,-292 402,-305 16,-8 31,-23 33,-32 3,-10 20,-74 37,-143 71,-281 113,-388 197,-490 78,-96 137,-136 350,-240 221,-108 280,-151 322,-236 31,-60 21,-67 -89,-60 -99,5 -165,28 -251,87 l -59,40 v -38 c 1,-56 31,-113 84,-160 67,-59 118,-74 268,-80 l 126,-6 17,-46 c 33,-88 118,-244 175,-320 67,-89 192,-211 276,-268 176,-120 412,-194 662,-209 l 112,-7 57,-81 c 69,-101 239,-270 315,-314 146,-86 290,-122 487,-122 h 128 l 18,-61 c 17,-56 18,-74 7,-213 -6,-88 -18,-167 -27,-189 -20,-49 -20,-107 1,-107 8,0 13,-4 10,-9 -14,-21 99,-28 155,-10 19,7 73,37 122,67 l 87,55 58,-55 c 102,-98 149,-113 348,-113 h 151 l 31,33 c 16,17 37,32 46,32 36,0 154,67 202,115 28,28 49,43 46,33 -7,-30 25,-66 87,-98 51,-25 98,-67 87,-77 -2,-2 -26,2 -54,8 -68,16 -111,3 -182,-57 -114,-95 -215,-114 -390,-70 -127,31 -132,32 -187,5 l -44,-21 3,-86 3,-86 35,-7 c 18,-4 39,-15 46,-23 10,-15 32,-6 190,74 99,50 211,102 251,116 70,24 156,31 180,16 12,-7 -68,-77 -271,-235 -102,-80 -209,-129 -321,-147 -79,-13 -111,-2 -237,78 -119,76 -198,100 -274,86 -29,-5 -39,-14 -51,-41 -17,-43 -12,-72 34,-180 l 35,-83 h 47 c 25,0 138,14 250,30 201,30 289,35 324,21 16,-6 11,-14 -35,-57 -98,-93 -212,-128 -396,-122 l -102,3 v -30 c 0,-47 28,-145 55,-191 23,-39 92,-114 106,-114 3,0 66,61 140,136 116,118 366,336 604,526 l 70,56 34,102 c 36,111 77,170 131,189 l 30,10 v -47 c 0,-99 -91,-345 -156,-421 -16,-19 -49,-47 -73,-63 -38,-24 -55,-28 -113,-28 h -68 v -29 c 0,-17 10,-42 23,-56 29,-34 134,-52 222,-39 58,9 59,10 67,47 24,118 107,191 229,204 l 62,6 -7,-108 c -24,-367 -126,-606 -458,-1068 -131,-182 -195,-282 -256,-397 -49,-93 -113,-253 -127,-318 l -7,-32 h 44 c 65,0 134,40 188,108 67,85 116,130 226,207 425,299 858,743 1179,1208 66,96 68,98 87,80 31,-28 125,-173 154,-239 79,-177 122,-340 204,-789 107,-585 175,-803 309,-990 32,-44 36,-57 36,-110 1,-51 7,-75 43,-146 23,-46 42,-96 42,-111 0,-20 5,-28 18,-28 30,-1 105,-39 162,-84 71,-56 109,-75 164,-82 41,-6 45,-5 59,22 41,82 32,131 -56,275 -34,57 -67,116 -74,130 -18,42 -26,317 -14,489 13,185 60,518 96,685 39,181 105,431 220,830 164,572 155,530 155,706 0,235 29,369 96,447 l 34,41 97,-40 c 328,-133 531,-316 558,-501 9,-60 -15,-146 -61,-215 l -34,-53 h 24 c 13,0 53,15 89,34 82,44 139,59 189,51 57,-10 91,-65 96,-155 4,-58 -2,-83 -38,-191 -42,-124 -70,-234 -70,-276 0,-19 5,-23 31,-23 48,0 82,42 104,129 21,88 47,122 94,124 31,2 39,-5 102,-82 118,-145 181,-291 183,-427 l 1,-71 27,23 c 15,12 54,32 85,44 32,12 68,28 80,35 19,13 22,12 28,-13 10,-41 73,-161 113,-217 20,-27 118,-133 217,-235 230,-236 263,-278 273,-356 6,-52 10,-59 31,-62 58,-9 116,60 109,129 l -4,40 218,204 c 119,113 220,205 224,205 3,0 24,-14 46,-31 21,-17 42,-28 46,-24 4,4 7,40 6,81 -1,65 -6,84 -39,152 -33,67 -60,100 -220,262 -189,192 -240,251 -395,460 -150,202 -252,359 -243,375 4,7 24,24 43,37 45,30 49,59 14,87 -32,25 -59,26 -107,6 -68,-28 -78,-23 -121,62 -22,42 -65,109 -97,148 -121,153 -171,239 -194,337 -19,81 -20,75 17,94 25,13 73,19 193,24 174,7 208,17 231,61 28,55 21,64 -44,61 -76,-5 -128,10 -191,53 l -51,35 v -30 c 0,-43 -25,-87 -60,-105 -17,-9 -80,-27 -140,-40 -61,-13 -118,-29 -128,-34 -15,-8 -22,-1 -45,40 l -28,49 h 36 c 20,0 49,7 66,15 28,15 94,94 85,102 -2,3 -21,0 -43,-6 -67,-19 -163,-13 -207,12 -47,26 -86,93 -86,147 0,50 29,84 100,120 53,27 110,79 110,101 0,18 -43,8 -134,-31 -104,-44 -158,-56 -211,-46 -26,5 -35,12 -35,27 0,27 -16,57 -56,101 -70,79 -58,119 55,177 l 80,41 218,-54 c 481,-121 989,-221 1542,-306 175,-26 165,-28 142,18 -44,86 -121,135 -331,212 -198,73 -224,90 -321,211 -122,153 -171,187 -282,196 -60,5 -79,11 -110,36 -45,35 -43,39 46,99 146,99 296,152 722,254 442,106 614,169 756,275 30,22 78,46 109,55 461,124 743,333 790,583 11,59 13,121 4,121 -3,0 -25,-14 -50,-30 -208,-144 -536,-203 -854,-155 -160,24 -271,49 -560,125 -321,84 -459,114 -613,135 -184,24 -264,20 -390,-16 l -108,-32 -102,28 c -135,37 -138,39 -96,60 106,54 273,210 385,360 33,44 116,161 184,260 128,188 231,324 272,363 23,20 216,100 458,188 118,43 259,79 369,95 125,17 360,6 489,-24 117,-27 115,-29 65,64 -104,195 -351,328 -668,360 -156,16 -416,-5 -455,-35 -8,-7 -80,-36 -160,-65 -143,-53 -948,-366 -1167,-454 -62,-25 -113,-43 -113,-40 0,11 53,97 153,248 141,212 199,337 225,483 l 9,52 h -34 c -28,0 -42,8 -75,45 -30,33 -49,45 -69,45 -50,0 -54,-22 -55,-270 0,-252 -2,-261 -68,-330 -24,-25 -69,-79 -101,-120 -32,-41 -80,-98 -108,-127 -49,-51 -51,-52 -124,-58 -71,-7 -103,1 -103,26 0,18 86,102 143,141 62,42 114,94 189,191 45,58 48,66 48,122 v 59 l -62,61 c -39,37 -100,80 -159,113 -53,29 -102,59 -109,66 -23,29 21,77 131,139 87,50 110,79 117,146 4,45 2,52 -23,75 -23,22 -37,26 -87,26 -65,0 -100,-14 -163,-65 -22,-18 -53,-39 -70,-47 l -30,-16 v 202 c 0,157 -4,219 -18,284 -56,255 -169,446 -348,585 l -79,62 v 65 c -1,85 -24,256 -49,361 -74,313 -237,585 -462,775 -91,77 -92,81 -58,199 12,40 19,84 16,97 -7,27 -61,88 -78,88 -28,0 -78,-54 -114,-122 -66,-128 -108,-168 -173,-168 -24,0 -36,11 -76,69 -68,100 -146,182 -331,346 l -163,145 -3,107 c -3,86 -8,115 -25,143 -23,40 -77,80 -108,80 -20,0 -21,-6 -23,-85 -2,-101 -23,-182 -60,-226 -26,-30 -29,-31 -84,-26 -31,3 -68,12 -82,21 -46,31 -75,126 -97,320 -20,176 -69,279 -151,321 -37,20 -36,20 -54,-15 -23,-44 -18,-93 19,-204 45,-132 49,-157 36,-203 -20,-71 -30,-77 -105,-63 -139,26 -251,99 -457,297 -164,159 -195,183 -294,230 -76,36 -83,38 -184,38 -58,0 -118,-2 -135,-5 l -30,-5 -6,75 c -8,93 -26,136 -73,178 -43,37 -67,40 -106,12 -44,-32 -45,-51 -6,-132 22,-43 36,-87 36,-109 0,-36 0,-36 -48,-42 -31,-4 -87,-26 -155,-61 -59,-31 -114,-56 -123,-56 -9,0 -74,49 -146,109 -207,173 -332,238 -507,263 l -79,12 -27,65 c -54,135 -127,214 -207,227 -29,5 -37,2 -51,-20 z"
       id="path4"
       inkscape:connector-curvature="0" />
  </g>
</svg>
